<svg xmlns="http://www.w3.org/2000/svg" xmlns:xlink="http://www.w3.org/1999/xlink" width="71.475" height="58.103" viewBox="0 0 71.475 58.103">
  <defs>
    <linearGradient id="linear-gradient" y1="0.5" x2="1" y2="0.5" gradientUnits="objectBoundingBox">
      <stop offset="0" stop-color="#f1cc8e"/>
      <stop offset="1" stop-color="#c89361"/>
    </linearGradient>
  </defs>
  <path id="Path_329" data-name="Path 329" d="M70.787,1417.393a15.109,15.109,0,0,1-8.3-2.075,17.42,17.42,0,0,1-5.3-5.3,19.353,19.353,0,0,1-3.229-8.071,47.973,47.973,0,0,1-.692-7.146,37.94,37.94,0,0,1,5.765-20.521q5.761-9.218,17.984-14.986l2.075,4.15a31.181,31.181,0,0,0-12.335,9.454q-5.188,6.456-5.188,13.142a15.3,15.3,0,0,0,.693,4.841,13.142,13.142,0,0,1,8.531-3A15.054,15.054,0,0,1,81.16,1391.8q4.377,3.923,4.381,10.836a13.975,13.975,0,0,1-4.381,10.606A14.58,14.58,0,0,1,70.787,1417.393Zm39.2,0a15.1,15.1,0,0,1-8.3-2.075,17.41,17.41,0,0,1-5.3-5.3,19.386,19.386,0,0,1-3.227-8.071,47.765,47.765,0,0,1-.69-7.146,37.939,37.939,0,0,1,5.763-20.521q5.759-9.218,17.984-14.986l2.075,4.15a31.172,31.172,0,0,0-12.335,9.454q-5.188,6.456-5.188,13.142a15.3,15.3,0,0,0,.692,4.841,13.15,13.15,0,0,1,8.531-3,15.06,15.06,0,0,1,10.375,3.921q4.377,3.923,4.38,10.836a13.974,13.974,0,0,1-4.38,10.606A14.585,14.585,0,0,1,109.982,1417.393Z" transform="translate(-53.262 -1359.29)" fill="url(#linear-gradient)"/>
</svg>
