<svg id="Group_489" data-name="Group 489" xmlns="http://www.w3.org/2000/svg" xmlns:xlink="http://www.w3.org/1999/xlink" width="65.701" height="53.409" viewBox="0 0 65.701 53.409">
  <defs>
    <linearGradient id="linear-gradient" y1="0.5" x2="1" y2="0.5" gradientUnits="objectBoundingBox">
      <stop offset="0" stop-color="#f1cc8e"/>
      <stop offset="1" stop-color="#c89361"/>
    </linearGradient>
  </defs>
  <path id="Path_330" data-name="Path 330" d="M1343.591,1361.058a13.887,13.887,0,0,1,7.628,1.906,16.085,16.085,0,0,1,4.876,4.875,17.9,17.9,0,0,1,2.966,7.417,43.806,43.806,0,0,1,.636,6.57,34.883,34.883,0,0,1-5.3,18.863q-5.3,8.479-16.531,13.777l-1.908-3.817a28.619,28.619,0,0,0,11.339-8.688q4.769-5.931,4.769-12.08a14.1,14.1,0,0,0-.635-4.451,12.078,12.078,0,0,1-7.842,2.755,13.813,13.813,0,0,1-9.538-3.6q-4.029-3.6-4.027-9.961a12.836,12.836,0,0,1,4.027-9.749A13.4,13.4,0,0,1,1343.591,1361.058Zm36.029,0a13.892,13.892,0,0,1,7.63,1.906,16.106,16.106,0,0,1,4.875,4.875,17.885,17.885,0,0,1,2.967,7.417,43.836,43.836,0,0,1,.636,6.57,34.883,34.883,0,0,1-5.3,18.863q-5.3,8.479-16.531,13.777l-1.908-3.817a28.618,28.618,0,0,0,11.339-8.688q4.77-5.931,4.769-12.08a14.094,14.094,0,0,0-.636-4.451,12.072,12.072,0,0,1-7.842,2.755,13.81,13.81,0,0,1-9.536-3.6q-4.031-3.6-4.028-9.961a12.833,12.833,0,0,1,4.028-9.749A13.4,13.4,0,0,1,1379.62,1361.058Z" transform="translate(-1330.027 -1361.058)" fill="url(#linear-gradient)"/>
</svg>
